<svg width="118" height="52" viewBox="0 0 118 52" fill="none" xmlns="http://www.w3.org/2000/svg">
<path d="M5.36777 0V25.3884H0V0H5.36777Z" fill="black"/>
<path d="M14.9659 14.3802V25.3884H9.68492V6.34711H14.718V9.70661H14.9411C15.3626 8.59917 16.0692 7.72314 17.0609 7.07851C18.0527 6.42562 19.2552 6.09917 20.6684 6.09917C21.9907 6.09917 23.1436 6.38843 24.1271 6.96694C25.1105 7.54545 25.875 8.3719 26.4205 9.44628C26.9659 10.5124 27.2386 11.7851 27.2386 13.2645V25.3884H21.9576V14.2066C21.9659 13.0413 21.6684 12.1322 21.0651 11.4793C20.4618 10.8182 19.6312 10.4876 18.5733 10.4876C17.8626 10.4876 17.2345 10.6405 16.689 10.9463C16.1519 11.2521 15.7304 11.6983 15.4246 12.2851C15.1271 12.8636 14.9742 13.562 14.9659 14.3802Z" fill="black"/>
<path d="M48.4711 6.34711L41.814 25.3884H35.8636L29.2066 6.34711H34.7851L38.7397 19.9711H38.938L42.8802 6.34711H48.4711Z" fill="black"/>
<path d="M59.2376 25.7603C57.2789 25.7603 55.593 25.3636 54.1797 24.5702C52.7748 23.7686 51.6921 22.6364 50.9318 21.1736C50.1715 19.7025 49.7913 17.9628 49.7913 15.9545C49.7913 13.9959 50.1715 12.2769 50.9318 10.7975C51.6921 9.31818 52.7624 8.16529 54.1426 7.33884C55.531 6.5124 57.1591 6.09917 59.0269 6.09917C60.2831 6.09917 61.4525 6.30165 62.5351 6.70661C63.626 7.10331 64.5764 7.70248 65.3864 8.50413C66.2045 9.30579 66.8409 10.314 67.2954 11.5289C67.75 12.7355 67.9773 14.1488 67.9773 15.7686V17.219H51.8988V13.9463H63.0062C63.0062 13.1859 62.8409 12.5124 62.5103 11.9256C62.1797 11.3388 61.7211 10.8802 61.1343 10.5496C60.5558 10.2107 59.8822 10.0413 59.1136 10.0413C58.312 10.0413 57.6012 10.2273 56.9814 10.5992C56.3698 10.9628 55.8905 11.4545 55.5434 12.0744C55.1963 12.6859 55.0186 13.3678 55.0103 14.1198V17.2314C55.0103 18.1736 55.1839 18.9876 55.531 19.6736C55.8864 20.3595 56.3864 20.8884 57.031 21.2603C57.6756 21.6322 58.4401 21.8182 59.3244 21.8182C59.9112 21.8182 60.4483 21.7355 60.9359 21.5702C61.4236 21.405 61.8409 21.157 62.188 20.8264C62.5351 20.4959 62.7996 20.0909 62.9814 19.6116L67.8657 19.9339C67.6178 21.1074 67.1095 22.1322 66.3409 23.0083C65.5806 23.876 64.5971 24.5537 63.3905 25.0413C62.1921 25.5207 60.8078 25.7603 59.2376 25.7603Z" fill="black"/>
<path d="M87.2665 11.7769L82.4318 12.0744C82.3492 11.6612 82.1715 11.2893 81.8988 10.9587C81.626 10.6198 81.2665 10.3512 80.8202 10.1529C80.3822 9.94628 79.8574 9.84298 79.2459 9.84298C78.4277 9.84298 77.7376 10.0165 77.1756 10.3636C76.6136 10.7025 76.3326 11.157 76.3326 11.7273C76.3326 12.1818 76.5145 12.5661 76.8781 12.8802C77.2417 13.1942 77.8657 13.4463 78.75 13.6364L82.1963 14.3306C84.0475 14.7107 85.4277 15.3223 86.3368 16.1653C87.2459 17.0083 87.7004 18.1157 87.7004 19.4876C87.7004 20.7355 87.3326 21.8306 86.5971 22.7727C85.8698 23.7149 84.8698 24.4504 83.5971 24.9793C82.3326 25.5 80.874 25.7603 79.2211 25.7603C76.7004 25.7603 74.6921 25.2355 73.1963 24.1859C71.7087 23.1281 70.8368 21.6901 70.5806 19.8719L75.7748 19.5992C75.9318 20.3678 76.312 20.9545 76.9153 21.3595C77.5186 21.7562 78.2913 21.9545 79.2335 21.9545C80.1591 21.9545 80.9029 21.7769 81.4649 21.4215C82.0351 21.0578 82.3244 20.5909 82.3326 20.0207C82.3244 19.5413 82.1219 19.1488 81.7252 18.843C81.3285 18.5289 80.7169 18.2893 79.8905 18.124L76.593 17.4669C74.7335 17.095 73.3492 16.4504 72.4401 15.5331C71.5393 14.6157 71.0888 13.4463 71.0888 12.0248C71.0888 10.8017 71.4194 9.74793 72.0806 8.86364C72.75 7.97934 73.688 7.29752 74.8946 6.81818C76.1095 6.33884 77.531 6.09917 79.1591 6.09917C81.564 6.09917 83.4566 6.60744 84.8368 7.62397C86.2252 8.6405 87.0351 10.0248 87.2665 11.7769Z" fill="black"/>
<path d="M101.154 6.34711V10.314H89.687V6.34711H101.154ZM92.2903 1.78512H97.5713V19.5372C97.5713 20.0248 97.6457 20.405 97.7944 20.6777C97.9432 20.9421 98.1498 21.1281 98.4142 21.2355C98.687 21.343 99.001 21.3967 99.3564 21.3967C99.6043 21.3967 99.8523 21.376 100.1 21.3347C100.348 21.2851 100.538 21.2479 100.67 21.2231L101.501 25.1529C101.237 25.2355 100.865 25.3306 100.385 25.438C99.906 25.5537 99.3233 25.624 98.6374 25.6488C97.3647 25.6983 96.249 25.5289 95.2903 25.1405C94.3399 24.7521 93.6002 24.1488 93.0713 23.3306C92.5423 22.5124 92.282 21.4793 92.2903 20.2314V1.78512Z" fill="black"/>
<path d="M104.594 25.3884V6.34711H109.714V9.66942H109.912C110.259 8.4876 110.842 7.59504 111.66 6.99174C112.478 6.38017 113.42 6.07438 114.487 6.07438C114.751 6.07438 115.036 6.09091 115.342 6.12397C115.648 6.15703 115.916 6.20248 116.148 6.26033V10.9463C115.9 10.8719 115.557 10.8058 115.119 10.7479C114.681 10.6901 114.28 10.6612 113.916 10.6612C113.139 10.6612 112.445 10.8306 111.834 11.1694C111.23 11.5 110.751 11.9628 110.396 12.5579C110.049 13.1529 109.875 13.8388 109.875 14.6157V25.3884H104.594Z" fill="black"/>
<path d="M65.3793 37.8824H67.7066L70.1646 43.8793H70.2692L72.7273 37.8824H75.0546V46.808H73.2241V40.9985H73.15L70.8402 46.7644H69.5937L67.2839 40.9767H67.2098V46.808H65.3793V37.8824Z" fill="#AEAEAE"/>
<path d="M76.6093 46.808V37.8824H82.6237V39.4382H78.4964V41.5651H82.3142V43.1209H78.4964V45.2521H82.6411V46.808H76.6093Z" fill="#AEAEAE"/>
<path d="M83.7841 39.4382V37.8824H91.1146V39.4382H88.382V46.808H86.5167V39.4382H83.7841Z" fill="#AEAEAE"/>
<path d="M92.7696 46.808H90.7474L93.8286 37.8824H96.2605L99.3374 46.808H97.3152L95.0795 39.922H95.0097L92.7696 46.808ZM92.6432 43.2996H97.4198V44.7727H92.6432V43.2996Z" fill="#AEAEAE"/>
<path d="M100.412 46.808V37.8824H102.299V45.2521H106.125V46.808H100.412Z" fill="#AEAEAE"/>
<path d="M112.217 40.4493C112.182 40.0978 112.033 39.8247 111.768 39.63C111.504 39.4353 111.145 39.338 110.692 39.338C110.384 39.338 110.124 39.3816 109.912 39.4687C109.699 39.553 109.537 39.6707 109.423 39.8218C109.313 39.9728 109.258 40.1443 109.258 40.336C109.252 40.4958 109.285 40.6353 109.358 40.7544C109.434 40.8735 109.537 40.9767 109.667 41.0639C109.798 41.1481 109.949 41.2222 110.121 41.2861C110.292 41.3471 110.475 41.3994 110.67 41.443L111.472 41.6348C111.861 41.7219 112.218 41.8382 112.544 41.9834C112.869 42.1287 113.151 42.3074 113.389 42.5195C113.628 42.7316 113.812 42.9815 113.943 43.2691C114.077 43.5568 114.145 43.8865 114.148 44.2584C114.145 44.8047 114.005 45.2782 113.729 45.6792C113.456 46.0773 113.061 46.3867 112.544 46.6075C112.03 46.8254 111.409 46.9344 110.683 46.9344C109.962 46.9344 109.335 46.824 108.8 46.6031C108.268 46.3823 107.853 46.0555 107.554 45.6225C107.257 45.1867 107.102 44.6478 107.087 44.0056H108.914C108.934 44.3049 109.02 44.5548 109.171 44.7553C109.325 44.9528 109.529 45.1025 109.785 45.2042C110.044 45.3029 110.336 45.3523 110.661 45.3523C110.981 45.3523 111.258 45.3059 111.494 45.2129C111.732 45.1199 111.916 44.9906 112.047 44.825C112.178 44.6594 112.243 44.4691 112.243 44.2541C112.243 44.0536 112.184 43.8851 112.064 43.7485C111.948 43.612 111.777 43.4957 111.55 43.3999C111.327 43.304 111.052 43.2168 110.727 43.1384L109.755 42.8943C109.002 42.7113 108.408 42.4251 107.972 42.0357C107.536 41.6464 107.32 41.122 107.323 40.4624C107.32 39.922 107.464 39.4499 107.754 39.046C108.048 38.6421 108.45 38.3269 108.961 38.1003C109.473 37.8736 110.054 37.7603 110.705 37.7603C111.367 37.7603 111.945 37.8736 112.439 38.1003C112.936 38.3269 113.323 38.6421 113.599 39.046C113.875 39.4499 114.017 39.9176 114.026 40.4493H112.217Z" fill="#AEAEAE"/>
<rect x="62.8793" y="33.2603" width="53.7684" height="18.174" rx="4.5" stroke="#969696"/>
</svg>
